<svg width="259.8999877929688px" height="186.839990234375px" xmlns="http://www.w3.org/2000/svg" viewBox="120.05000610351561 -18.419995117187497 259.8999877929688 186.839990234375" style="background: rgb(255, 255, 255) none repeat scroll 0% 0%;" preserveAspectRatio="xMidYMid"><defs><filter id="editing-extrusion" x="-100%" y="-100%" width="300%" height="300%"><feFlood result="color1" flood-color="#444444"></feFlood><feConvolveMatrix order="1,1" divisor="1" kernelMatrix="1" in="SourceAlpha" result="extrude"></feConvolveMatrix><feComposite in="color1" in2="extrude" result="comp-extrude" operator="in"></feComposite><feOffset dx="0.5" dy="0.5" in="comp-extrude" result="offset-extrude"></feOffset><feMerge><feMergeNode in="offset-extrude"></feMergeNode><feMergeNode in="SourceGraphic"></feMergeNode></feMerge></filter></defs><g filter="url(#editing-extrusion)"><g transform="translate(163.7999725341797, 112.544921875)"><path d="M25.98-16.89L26.51-15.43L23.49-14.55L23.49-14.55Q22.66-16.70 21.85-20.31L21.85-20.31L21.85-20.31Q21.04-23.93 21.04-24.80L21.04-24.80L21.04-24.80Q17.38-24.80 13.65-23.73L13.65-23.73L13.65-23.73Q9.91-22.66 7.69-21.44L7.69-21.44L7.69-21.44Q5.47-20.21 3.88-17.94L3.88-17.94L3.88-17.94Q2.29-15.67 2.29-12.67L2.29-12.67L2.29-12.67Q2.29-9.67 3.83-7.37L3.83-7.37L3.83-7.37Q5.37-5.08 7.91-3.91L7.91-3.91L7.91-3.91Q12.79-1.61 18.14-1.61L18.14-1.61L18.14-1.61Q23.49-1.61 27.34-2.73L27.34-2.73L27.34-2.73Q31.20-3.86 33.86-5.71L33.86-5.71L33.86-5.71Q36.52-7.57 38.72-10.40L38.72-10.40L38.72-10.40Q40.92-13.23 42.29-16.19L42.29-16.19L42.29-16.19Q43.65-19.14 44.97-22.95L44.97-22.95L44.97-22.95Q46.29-26.76 47.17-30.08L47.17-30.08L47.17-30.08Q49.56-38.92 51.98-44.87L51.98-44.87L51.98-44.87Q54.39-50.83 59.13-56.62L59.13-56.62L59.13-56.62Q63.87-62.40 69.87-66.11L69.87-66.11L69.87-66.11Q66.94-66.80 62.40-66.80L62.40-66.80L62.40-66.80Q57.86-66.80 52.08-64.82L52.08-64.82L52.08-64.82Q46.29-62.84 41.31-59.30L41.31-59.30L41.31-59.30Q36.33-55.76 32.40-51.22L32.40-51.22L32.40-51.22Q28.47-46.68 26.22-41.19L26.22-41.19L26.22-41.19Q23.97-35.69 23.97-30.18L23.97-30.18L23.97-30.18Q34.72-27.98 39.50-22.22L39.50-22.22L37.45-20.07L37.45-20.07Q32.42-23.34 29.93-23.93L29.93-23.93L29.93-23.93Q27.44-24.51 26.95-24.61L26.95-24.61L26.95-24.61Q24.71-24.90 23.88-24.90L23.88-24.90L23.88-24.90Q24.46-21.29 25.98-16.89L25.98-16.89ZM89.40-73.19L89.40-73.19L90.38-70.90L90.38-70.90Q85.89-70.07 82.03-68.46L82.03-68.46L80.71-67.92L80.71-67.92Q84.23-66.16 86.30-63.13L86.30-63.13L86.30-63.13Q88.38-60.11 88.38-57.59L88.38-57.59L88.38-57.59Q88.38-55.08 87.94-53.37L87.94-53.37L87.94-53.37Q87.50-51.66 86.87-50.29L86.87-50.29L86.87-50.29Q86.23-48.93 85.18-47.44L85.18-47.44L85.18-47.44Q84.13-45.95 83.25-44.95L83.25-44.95L83.25-44.95Q82.37-43.95 81.08-42.70L81.08-42.70L81.08-42.70Q79.79-41.46 79.05-40.82L79.05-40.82L79.05-40.82Q77.73-39.75 75.78-38.18L75.78-38.18L75.78-38.18Q82.76-35.30 86.43-31.37L86.43-31.37L86.43-31.37Q90.09-27.44 90.09-21.56L90.09-21.56L90.09-21.56Q90.09-15.67 86.55-10.16L86.55-10.16L86.55-10.16Q83.01-4.64 77.17-1.37L77.17-1.37L77.17-1.37Q71.34 1.90 64.79 1.90L64.79 1.90L64.79 1.90Q57.57 1.90 53.71-2.15L53.71-2.15L53.71-2.15Q51.61-4.35 51.61-7.28L51.61-7.28L51.61-7.28Q51.61-10.21 53.39-12.01L53.39-12.01L53.39-12.01Q55.18-13.82 57.71-13.82L57.71-13.82L57.71-13.82Q60.25-13.82 61.72-12.55L61.72-12.55L61.72-12.55Q63.18-11.28 63.18-9.59L63.18-9.59L63.18-9.59Q63.18-7.91 62.60-6.96L62.60-6.96L62.60-6.96Q62.01-6.01 61.21-5.47L61.21-5.47L61.21-5.47Q60.40-4.93 59.52-4.59L59.52-4.59L59.52-4.59Q58.01-4.00 57.47-4.00L57.47-4.00L57.47-4.00Q57.47-1.86 62.79-1.32L62.79-1.32L62.79-1.32Q63.72-1.22 64.50-1.22L64.50-1.22L64.50-1.22Q71.29-1.22 75.88-6.35L75.88-6.35L75.88-6.35Q80.47-11.47 80.47-18.31L80.47-18.31L80.47-18.31Q80.47-21.73 78.96-24.63L78.96-24.63L78.96-24.63Q77.44-27.54 75.24-29.30L75.24-29.30L75.24-29.30Q73.05-31.05 70.87-32.30L70.87-32.30L70.87-32.30Q68.70-33.54 67.19-34.23L67.19-34.23L67.19-34.23Q65.67-34.91 65.67-35.13L65.67-35.13L65.67-35.13Q65.67-35.35 67.14-36.33L67.14-36.33L67.14-36.33Q68.60-37.30 70.73-38.89L70.73-38.89L70.73-38.89Q72.85-40.48 74.95-42.53L74.95-42.53L74.95-42.53Q77.05-44.58 78.52-47.53L78.52-47.53L78.52-47.53Q79.98-50.49 79.98-53.47L79.98-53.47L79.98-53.47Q79.98-56.45 78.32-59.84L78.32-59.84L78.32-59.84Q76.66-63.23 73.49-64.60L73.49-64.60L73.49-64.60Q64.31-58.94 60.25-47.07L60.25-47.07L60.25-47.07Q58.50-41.99 57.62-37.94L57.62-37.94L57.62-37.94Q55.47-27.73 54.49-23.80L54.49-23.80L54.49-23.80Q53.52-19.87 50.61-15.09L50.61-15.09L50.61-15.09Q47.71-10.30 43.41-6.49L43.41-6.49L43.41-6.49Q39.11-2.69 32.96-0.49L32.96-0.49L32.96-0.49Q26.81 1.71 19.58 1.71L19.58 1.71L19.58 1.71Q9.67 1.71 3.47-2.83L3.47-2.83L3.47-2.83Q-1.42-6.45-1.42-12.89L-1.42-12.89L-1.42-12.89Q-1.42-17.24 0.68-20.70L0.68-20.70L0.68-20.70Q2.78-24.17 6.15-26.17L6.15-26.17L6.15-26.17Q12.99-30.27 21.04-30.27L21.04-30.27L21.04-30.27Q21.04-38.18 24.76-45.63L24.76-45.63L24.76-45.63Q28.47-53.08 34.59-58.47L34.59-58.47L34.59-58.47Q40.72-63.87 48.95-67.14L48.95-67.14L48.95-67.14Q57.18-70.41 65.87-70.41L65.87-70.41L65.87-70.41Q68.90-70.41 75.68-69.58L75.68-69.58L75.68-69.58Q84.91-72.90 89.40-73.19ZM168.70-13.82L168.70-13.82L171.19-11.72L171.19-11.72Q168.80-5.76 164.89-2.32L164.89-2.32L164.89-2.32Q160.99 1.12 157.13 1.12L157.13 1.12L157.13 1.12Q154.83 1.12 153.17-0.98L153.17-0.98L153.17-0.98Q151.51-3.08 151.51-6.84L151.51-6.84L151.51-6.84Q151.51-10.60 153.56-18.04L153.56-18.04L153.56-18.04Q155.62-25.49 158.06-32.62L158.06-32.62L158.06-32.62Q164.60-51.71 164.60-59.62L164.60-59.62L164.60-59.62Q164.60-65.38 161.65-65.38L161.65-65.38L161.65-65.38Q158.69-65.38 155.03-61.77L155.03-61.77L155.03-61.77Q151.37-58.15 147.88-52.39L147.88-52.39L147.88-52.39Q144.38-46.63 140.82-39.65L140.82-39.65L140.82-39.65Q137.26-32.67 134.25-25.71L134.25-25.71L134.25-25.71Q131.25-18.75 128.88-12.99L128.88-12.99L128.88-12.99Q126.51-7.23 125.07-3.61L125.07-3.61L125.07-3.61Q123.63 0 123.49 0L123.49 0L114.40 0L119.48-14.31L119.48-14.31Q128.66-40.28 128.69-53.59L128.69-53.59L128.69-53.59Q128.71-66.89 118.60-66.89L118.60-66.89L118.60-66.89Q114.84-66.89 111.65-64.77L111.65-64.77L111.65-64.77Q108.45-62.65 106.40-59.40L106.40-59.40L106.40-59.40Q104.35-56.15 102.88-52.15L102.88-52.15L102.88-52.15Q100.20-44.63 100.20-37.60L100.20-37.60L100.20-37.60Q100.20-24.27 106.30-14.21L106.30-14.21L104.39-12.60L104.39-12.60Q101.07-17.92 99.34-24.49L99.34-24.49L99.34-24.49Q97.61-31.05 97.61-36.25L97.61-36.25L97.61-36.25Q97.61-41.46 98.34-45.83L98.34-45.83L98.34-45.83Q99.07-50.20 100.78-54.66L100.78-54.66L100.78-54.66Q102.49-59.13 104.98-62.57L104.98-62.57L104.98-62.57Q107.47-66.02 111.38-68.21L111.38-68.21L111.38-68.21Q115.28-70.41 119.21-70.41L119.21-70.41L119.21-70.41Q123.14-70.41 125.68-69.34L125.68-69.34L125.68-69.34Q128.22-68.26 129.88-66.43L129.88-66.43L129.88-66.43Q131.54-64.60 132.67-62.11L132.67-62.11L132.67-62.11Q134.72-57.42 134.72-51.86L134.72-51.86L134.72-51.86Q134.72-46.29 133.54-39.01L133.54-39.01L133.54-39.01Q132.08-30.18 130.13-22.80L130.13-22.80L130.13-22.80Q131.69-27.15 132.84-29.52L132.84-29.52L132.84-29.52Q133.98-31.88 135.52-35.21L135.52-35.21L135.52-35.21Q137.06-38.53 138.28-41.19L138.28-41.19L138.28-41.19Q139.50-43.85 141.50-47.66L141.50-47.66L141.50-47.66Q143.51-51.46 145.26-54.39L145.26-54.39L145.26-54.39Q147.02-57.32 149.34-60.47L149.34-60.47L149.34-60.47Q151.66-63.62 153.86-65.67L153.86-65.67L153.86-65.67Q158.94-70.41 163.43-70.41L163.43-70.41L163.43-70.41Q167.92-70.41 170.17-67.46L170.17-67.46L170.17-67.46Q172.41-64.50 172.41-59.91L172.41-59.91L172.41-59.91Q172.41-55.32 171.09-49.24L171.09-49.24L171.09-49.24Q169.78-43.16 167.87-37.35L167.87-37.35L167.87-37.35Q165.97-31.54 164.06-26.03L164.06-26.03L164.06-26.03Q159.52-12.89 159.52-8.74L159.52-8.74L159.52-8.74Q159.52-4.59 160.94-4.59L160.94-4.59L160.94-4.59Q162.35-4.59 165.11-8.23L165.11-8.23L165.11-8.23Q167.87-11.87 168.70-13.82Z" fill="#346cb0"></path></g></g><style>text {
  font-size: 64px;
  font-family: Arial Black;
  dominant-baseline: central;
  text-anchor: middle;
}</style></svg>