<svg width="470.22001953125px" height="186.839990234375px" xmlns="http://www.w3.org/2000/svg" viewBox="14.889990234375006 -18.419995117187497 470.22001953125 186.839990234375" style="background: rgb(52, 108, 176) none repeat scroll 0% 0%;" preserveAspectRatio="xMidYMid">
   <defs>
      <filter id="editing-extrusion" x="-100%" y="-100%" width="300%" height="300%">
         <feFlood result="color1" flood-color="#444444"></feFlood>
         <feConvolveMatrix order="1,1" divisor="1" kernelMatrix="1" in="SourceAlpha" result="extrude"></feConvolveMatrix>
         <feComposite in="color1" in2="extrude" result="comp-extrude" operator="in"></feComposite>
         <feOffset dx="0.5" dy="0.5" in="comp-extrude" result="offset-extrude"></feOffset>
         <feMerge>
            <feMergeNode in="offset-extrude"></feMergeNode>
            <feMergeNode in="SourceGraphic"></feMergeNode>
         </feMerge>
      </filter>
   </defs>
   <g filter="url(#editing-extrusion)">
      <g transform="translate(87.89567565917969, 112.544921875)">
         <path d="M25.98-16.89L26.51-15.43L23.49-14.55L23.49-14.55Q22.66-16.70 21.85-20.31L21.85-20.31L21.85-20.31Q21.04-23.93 21.04-24.80L21.04-24.80L21.04-24.80Q17.38-24.80 13.65-23.73L13.65-23.73L13.65-23.73Q9.91-22.66 7.69-21.44L7.69-21.44L7.69-21.44Q5.47-20.21 3.88-17.94L3.88-17.94L3.88-17.94Q2.29-15.67 2.29-12.67L2.29-12.67L2.29-12.67Q2.29-9.67 3.83-7.37L3.83-7.37L3.83-7.37Q5.37-5.08 7.91-3.91L7.91-3.91L7.91-3.91Q12.79-1.61 18.14-1.61L18.14-1.61L18.14-1.61Q23.49-1.61 27.34-2.73L27.34-2.73L27.34-2.73Q31.20-3.86 33.86-5.71L33.86-5.71L33.86-5.71Q36.52-7.57 38.72-10.40L38.72-10.40L38.72-10.40Q40.92-13.23 42.29-16.19L42.29-16.19L42.29-16.19Q43.65-19.14 44.97-22.95L44.97-22.95L44.97-22.95Q46.29-26.76 47.17-30.08L47.17-30.08L47.17-30.08Q49.56-38.92 51.98-44.87L51.98-44.87L51.98-44.87Q54.39-50.83 59.13-56.62L59.13-56.62L59.13-56.62Q63.87-62.40 69.87-66.11L69.87-66.11L69.87-66.11Q66.94-66.80 62.40-66.80L62.40-66.80L62.40-66.80Q57.86-66.80 52.08-64.82L52.08-64.82L52.08-64.82Q46.29-62.84 41.31-59.30L41.31-59.30L41.31-59.30Q36.33-55.76 32.40-51.22L32.40-51.22L32.40-51.22Q28.47-46.68 26.22-41.19L26.22-41.19L26.22-41.19Q23.97-35.69 23.97-30.18L23.97-30.18L23.97-30.18Q34.72-27.98 39.50-22.22L39.50-22.22L37.45-20.07L37.45-20.07Q32.42-23.34 29.93-23.93L29.93-23.93L29.93-23.93Q27.44-24.51 26.95-24.61L26.95-24.61L26.95-24.61Q24.71-24.90 23.88-24.90L23.88-24.90L23.88-24.90Q24.46-21.29 25.98-16.89L25.98-16.89ZM89.40-73.19L89.40-73.19L90.38-70.90L90.38-70.90Q85.89-70.07 82.03-68.46L82.03-68.46L80.71-67.92L80.71-67.92Q84.23-66.16 86.30-63.13L86.30-63.13L86.30-63.13Q88.38-60.11 88.38-57.59L88.38-57.59L88.38-57.59Q88.38-55.08 87.94-53.37L87.94-53.37L87.94-53.37Q87.50-51.66 86.87-50.29L86.87-50.29L86.87-50.29Q86.23-48.93 85.18-47.44L85.18-47.44L85.18-47.44Q84.13-45.95 83.25-44.95L83.25-44.95L83.25-44.95Q82.37-43.95 81.08-42.70L81.08-42.70L81.08-42.70Q79.79-41.46 79.05-40.82L79.05-40.82L79.05-40.82Q77.73-39.75 75.78-38.18L75.78-38.18L75.78-38.18Q82.76-35.30 86.43-31.37L86.43-31.37L86.43-31.37Q90.09-27.44 90.09-21.56L90.09-21.56L90.09-21.56Q90.09-15.67 86.55-10.16L86.55-10.16L86.55-10.16Q83.01-4.64 77.17-1.37L77.17-1.37L77.17-1.37Q71.34 1.90 64.79 1.90L64.79 1.90L64.79 1.90Q57.57 1.90 53.71-2.15L53.71-2.15L53.71-2.15Q51.61-4.35 51.61-7.28L51.61-7.28L51.61-7.28Q51.61-10.21 53.39-12.01L53.39-12.01L53.39-12.01Q55.18-13.82 57.71-13.82L57.71-13.82L57.71-13.82Q60.25-13.82 61.72-12.55L61.72-12.55L61.72-12.55Q63.18-11.28 63.18-9.59L63.18-9.59L63.18-9.59Q63.18-7.91 62.60-6.96L62.60-6.96L62.60-6.96Q62.01-6.01 61.21-5.47L61.21-5.47L61.21-5.47Q60.40-4.93 59.52-4.59L59.52-4.59L59.52-4.59Q58.01-4.00 57.47-4.00L57.47-4.00L57.47-4.00Q57.47-1.86 62.79-1.32L62.79-1.32L62.79-1.32Q63.72-1.22 64.50-1.22L64.50-1.22L64.50-1.22Q71.29-1.22 75.88-6.35L75.88-6.35L75.88-6.35Q80.47-11.47 80.47-18.31L80.47-18.31L80.47-18.31Q80.47-21.73 78.96-24.63L78.96-24.63L78.96-24.63Q77.44-27.54 75.24-29.30L75.24-29.30L75.24-29.30Q73.05-31.05 70.87-32.30L70.87-32.30L70.87-32.30Q68.70-33.54 67.19-34.23L67.19-34.23L67.19-34.23Q65.67-34.91 65.67-35.13L65.67-35.13L65.67-35.13Q65.67-35.35 67.14-36.33L67.14-36.33L67.14-36.33Q68.60-37.30 70.73-38.89L70.73-38.89L70.73-38.89Q72.85-40.48 74.95-42.53L74.95-42.53L74.95-42.53Q77.05-44.58 78.52-47.53L78.52-47.53L78.52-47.53Q79.98-50.49 79.98-53.47L79.98-53.47L79.98-53.47Q79.98-56.45 78.32-59.84L78.32-59.84L78.32-59.84Q76.66-63.23 73.49-64.60L73.49-64.60L73.49-64.60Q64.31-58.94 60.25-47.07L60.25-47.07L60.25-47.07Q58.50-41.99 57.62-37.94L57.62-37.94L57.62-37.94Q55.47-27.73 54.49-23.80L54.49-23.80L54.49-23.80Q53.52-19.87 50.61-15.09L50.61-15.09L50.61-15.09Q47.71-10.30 43.41-6.49L43.41-6.49L43.41-6.49Q39.11-2.69 32.96-0.49L32.96-0.49L32.96-0.49Q26.81 1.71 19.58 1.71L19.58 1.71L19.58 1.71Q9.67 1.71 3.47-2.83L3.47-2.83L3.47-2.83Q-1.42-6.45-1.42-12.89L-1.42-12.89L-1.42-12.89Q-1.42-17.24 0.68-20.70L0.68-20.70L0.68-20.70Q2.78-24.17 6.15-26.17L6.15-26.17L6.15-26.17Q12.99-30.27 21.04-30.27L21.04-30.27L21.04-30.27Q21.04-38.18 24.76-45.63L24.76-45.63L24.76-45.63Q28.47-53.08 34.59-58.47L34.59-58.47L34.59-58.47Q40.72-63.87 48.95-67.14L48.95-67.14L48.95-67.14Q57.18-70.41 65.87-70.41L65.87-70.41L65.87-70.41Q68.90-70.41 75.68-69.58L75.68-69.58L75.68-69.58Q84.91-72.90 89.40-73.19ZM94.34-11.62L94.34-11.62L94.34-11.62Q94.34-15.28 96.12-18.68L96.12-18.68L96.12-18.68Q97.90-22.07 100.73-24.41L100.73-24.41L100.73-24.41Q106.98-29.49 113.48-29.49L113.48-29.49L113.48-29.49Q119.97-29.49 124.12-26.03L124.12-26.03L124.12-26.03Q128.27-22.56 128.27-17.36L128.27-17.36L128.27-17.36Q128.27-12.16 125.42-8.01L125.42-8.01L125.42-8.01Q122.56-3.86 117.87-1.54L117.87-1.54L117.87-1.54Q113.18 0.78 107.64 0.78L107.64 0.78L107.64 0.78Q102.10 0.78 98.22-2.71L98.22-2.71L98.22-2.71Q94.34-6.20 94.34-11.62ZM110.30-2.25L110.30-2.25L110.30-2.25Q112.55-2.25 114.53-3.71L114.53-3.71L114.53-3.71Q116.50-5.18 117.53-7.52L117.53-7.52L117.53-7.52Q119.53-12.01 119.53-16.80L119.53-16.80L119.53-16.80Q119.53-21.58 117.77-24.05L117.77-24.05L117.77-24.05Q116.02-26.51 112.79-26.51L112.79-26.51L112.79-26.51Q109.57-26.51 106.42-22.31L106.42-22.31L106.42-22.31Q103.27-18.12 103.27-11.62L103.27-11.62L103.27-11.62Q103.27-2.25 110.30-2.25ZM140.94 0.78L140.94 0.78L140.94 0.78Q138.87 0.78 137.70-0.49L137.70-0.49L137.70-0.49Q136.52-1.76 136.52-3.98L136.52-3.98L136.52-3.98Q136.52-6.20 137.67-10.03L137.67-10.03L137.67-10.03Q138.82-13.87 139.97-16.99L139.97-16.99L139.97-16.99Q141.11-20.12 141.11-21.17L141.11-21.17L141.11-21.17Q141.11-22.22 140.43-22.22L140.43-22.22L140.43-22.22Q138.72-22.22 134.91-15.48L134.91-15.48L131.64-17.38L131.64-17.38Q138.82-29.49 144.82-29.49L144.82-29.49L144.82-29.49Q148.93-29.49 148.93-24.32L148.93-24.32L148.93-24.32Q148.93-22.80 147.95-19.48L147.95-19.48L144.43-9.42L144.43-9.42Q143.90-8.01 143.90-6.86L143.90-6.86L143.90-6.86Q143.90-5.71 144.78-5.71L144.78-5.71L144.78-5.71Q146.44-5.71 150.88-11.87L150.88-11.87L152.93-9.96L152.93-9.96Q150.29-5.08 146.66-2.15L146.66-2.15L146.66-2.15Q143.02 0.78 140.94 0.78ZM154.83-43.92L154.83-43.92L154.83-43.92Q154.83-41.94 153.52-40.33L153.52-40.33L153.52-40.33Q152.20-38.72 149.95-38.72L149.95-38.72L149.95-38.72Q147.71-38.72 146.58-40.06L146.58-40.06L146.58-40.06Q145.46-41.41 145.46-43.46L145.46-43.46L145.46-43.46Q145.46-45.51 146.85-47.09L146.85-47.09L146.85-47.09Q148.24-48.68 150.44-48.68L150.44-48.68L150.44-48.68Q152.64-48.68 153.74-47.29L153.74-47.29L153.74-47.29Q154.83-45.90 154.83-43.92ZM230.18-13.82L230.18-13.82L232.67-11.72L232.67-11.72Q230.27-5.76 226.37-2.32L226.37-2.32L226.37-2.32Q222.46 1.12 218.60 1.12L218.60 1.12L218.60 1.12Q216.31 1.12 214.65-0.98L214.65-0.98L214.65-0.98Q212.99-3.08 212.99-6.84L212.99-6.84L212.99-6.84Q212.99-10.60 215.04-18.04L215.04-18.04L215.04-18.04Q217.09-25.49 219.53-32.62L219.53-32.62L219.53-32.62Q226.07-51.71 226.07-59.62L226.07-59.62L226.07-59.62Q226.07-65.38 223.12-65.38L223.12-65.38L223.12-65.38Q220.17-65.38 216.50-61.77L216.50-61.77L216.50-61.77Q212.84-58.15 209.35-52.39L209.35-52.39L209.35-52.39Q205.86-46.63 202.29-39.65L202.29-39.65L202.29-39.65Q198.73-32.67 195.73-25.71L195.73-25.71L195.73-25.71Q192.72-18.75 190.36-12.99L190.36-12.99L190.36-12.99Q187.99-7.23 186.55-3.61L186.55-3.61L186.55-3.61Q185.11 0 184.96 0L184.96 0L175.88 0L180.96-14.31L180.96-14.31Q190.14-40.28 190.16-53.59L190.16-53.59L190.16-53.59Q190.19-66.89 180.08-66.89L180.08-66.89L180.08-66.89Q176.32-66.89 173.12-64.77L173.12-64.77L173.12-64.77Q169.92-62.65 167.87-59.40L167.87-59.40L167.87-59.40Q165.82-56.15 164.36-52.15L164.36-52.15L164.36-52.15Q161.67-44.63 161.67-37.60L161.67-37.60L161.67-37.60Q161.67-24.27 167.77-14.21L167.77-14.21L165.87-12.60L165.87-12.60Q162.55-17.92 160.82-24.49L160.82-24.49L160.82-24.49Q159.08-31.05 159.08-36.25L159.08-36.25L159.08-36.25Q159.08-41.46 159.81-45.83L159.81-45.83L159.81-45.83Q160.55-50.20 162.26-54.66L162.26-54.66L162.26-54.66Q163.96-59.13 166.46-62.57L166.46-62.57L166.46-62.57Q168.95-66.02 172.85-68.21L172.85-68.21L172.85-68.21Q176.76-70.41 180.69-70.41L180.69-70.41L180.69-70.41Q184.62-70.41 187.16-69.34L187.16-69.34L187.16-69.34Q189.70-68.26 191.36-66.43L191.36-66.43L191.36-66.43Q193.02-64.60 194.14-62.11L194.14-62.11L194.14-62.11Q196.19-57.42 196.19-51.86L196.19-51.86L196.19-51.86Q196.19-46.29 195.02-39.01L195.02-39.01L195.02-39.01Q193.55-30.18 191.60-22.80L191.60-22.80L191.60-22.80Q193.16-27.15 194.31-29.52L194.31-29.52L194.31-29.52Q195.46-31.88 197.00-35.21L197.00-35.21L197.00-35.21Q198.54-38.53 199.76-41.19L199.76-41.19L199.76-41.19Q200.98-43.85 202.98-47.66L202.98-47.66L202.98-47.66Q204.98-51.46 206.74-54.39L206.74-54.39L206.74-54.39Q208.50-57.32 210.82-60.47L210.82-60.47L210.82-60.47Q213.13-63.62 215.33-65.67L215.33-65.67L215.33-65.67Q220.41-70.41 224.90-70.41L224.90-70.41L224.90-70.41Q229.39-70.41 231.64-67.46L231.64-67.46L231.64-67.46Q233.89-64.50 233.89-59.91L233.89-59.91L233.89-59.91Q233.89-55.32 232.57-49.24L232.57-49.24L232.57-49.24Q231.25-43.16 229.35-37.35L229.35-37.35L229.35-37.35Q227.44-31.54 225.54-26.03L225.54-26.03L225.54-26.03Q221.00-12.89 221.00-8.74L221.00-8.74L221.00-8.74Q221.00-4.59 222.41-4.59L222.41-4.59L222.41-4.59Q223.83-4.59 226.59-8.23L226.59-8.23L226.59-8.23Q229.35-11.87 230.18-13.82ZM260.21-22.71L261.67-28.42L269.29-28.42L265.43-13.82L265.43-13.82Q264.50-10.74 264.50-8.23L264.50-8.23L264.50-8.23Q264.50-5.71 265.38-5.71L265.38-5.71L265.38-5.71Q266.26-5.71 267.80-7.25L267.80-7.25L267.80-7.25Q269.34-8.79 270.41-10.35L270.41-10.35L271.53-11.91L273.63-9.96L273.63-9.96Q272.02-6.84 269.53-4.25L269.53-4.25L269.53-4.25Q264.70 0.78 261.13 0.78L261.13 0.78L261.13 0.78Q256.93 0.78 256.93-5.71L256.93-5.71L256.93-5.71Q256.93-6.79 257.03-7.32L257.03-7.32L257.03-7.32Q256.30-4.83 254.25-2.93L254.25-2.93L254.25-2.93Q250.34 0.78 245.43 0.78L245.43 0.78L245.43 0.78Q240.53 0.78 237.57-2.56L237.57-2.56L237.57-2.56Q234.62-5.91 234.62-10.94L234.62-10.94L234.62-10.94Q234.62-18.75 239.70-24.12L239.70-24.12L239.70-24.12Q244.78-29.49 251.61-29.49L251.61-29.49L251.61-29.49Q255.03-29.49 257.28-27.61L257.28-27.61L257.28-27.61Q259.52-25.73 260.21-22.71L260.21-22.71ZM253.52-25.29L253.52-25.29L253.52-25.29Q250.68-25.29 248.22-22.92L248.22-22.92L248.22-22.92Q245.75-20.56 244.43-17.21L244.43-17.21L244.43-17.21Q243.12-13.87 243.12-10.69L243.12-10.69L243.12-10.69Q243.12-7.52 244.51-5.57L244.51-5.57L244.51-5.57Q245.90-3.61 248.80-3.61L248.80-3.61L248.80-3.61Q251.71-3.61 254.05-6.25L254.05-6.25L254.05-6.25Q258.50-11.33 258.50-18.31L258.50-18.31L258.50-18.31Q258.50-25.29 253.52-25.29ZM306.84-21.29L306.84-21.29L306.54-12.30L306.54-12.30Q306.54-3.42 308.64-3.42L308.64-3.42L308.64-3.42Q310.74-3.42 313.35-6.42L313.35-6.42L313.35-6.42Q315.97-9.42 317.80-13.72L317.80-13.72L317.80-13.72Q319.63-18.02 319.63-21.48L319.63-21.48L319.63-21.48Q319.14-21.09 317.36-21.09L317.36-21.09L317.36-21.09Q315.58-21.09 314.40-22.22L314.40-22.22L314.40-22.22Q313.23-23.34 313.23-25.05L313.23-25.05L313.23-25.05Q313.23-26.76 314.53-28.13L314.53-28.13L314.53-28.13Q315.82-29.49 318.41-29.49L318.41-29.49L318.41-29.49Q321.00-29.49 322.61-27.83L322.61-27.83L322.61-27.83Q324.22-26.17 324.22-23.27L324.22-23.27L324.22-23.27Q324.22-20.36 322.97-16.31L322.97-16.31L322.97-16.31Q321.73-12.26 319.58-8.40L319.58-8.40L319.58-8.40Q317.43-4.54 313.99-1.88L313.99-1.88L313.99-1.88Q310.55 0.78 306.64 0.78L306.64 0.78L306.64 0.78Q303.17 0.78 301.71-3.22L301.71-3.22L301.71-3.22Q300.49-6.54 300.34-9.06L300.34-9.06L300.34-9.06Q300.20-11.57 300.10-12.99L300.10-12.99L300.10-12.99Q293.41-2.73 288.67-0.29L288.67-0.29L288.67-0.29Q286.57 0.78 284.42 0.78L284.42 0.78L284.42 0.78Q279.64 0.78 279.64-4.83L279.64-4.83L279.64-4.83Q279.64-8.01 281.47-13.45L281.47-13.45L281.47-13.45Q283.30-18.90 283.30-20.41L283.30-20.41L283.30-20.41Q283.30-21.92 282.42-21.92L282.42-21.92L282.42-21.92Q281.10-21.92 277.20-15.58L277.20-15.58L274.02-17.38L274.02-17.38Q281.20-29.49 287.21-29.49L287.21-29.49L287.21-29.49Q288.82-29.49 290.01-28.30L290.01-28.30L290.01-28.30Q291.21-27.10 291.21-24.39L291.21-24.39L291.21-24.39Q291.21-21.68 289.26-14.40L289.26-14.40L289.26-14.40Q287.30-7.13 287.30-6.69L287.30-6.69L287.30-6.69Q287.30-4.69 288.57-4.69L288.57-4.69L288.57-4.69Q289.84-4.69 292.36-7.91L292.36-7.91L292.36-7.91Q294.87-11.13 297.22-15.04L297.22-15.04L297.22-15.04Q303.32-25.39 305.42-25.39L305.42-25.39L305.42-25.39Q306.84-25.39 306.84-21.29Z" fill="#ffffff"></path>
      </g>
   </g>
   <style>text {
      font-size: 64px;
      font-family: Arial Black;
      dominant-baseline: central;
      text-anchor: middle;
      }
   </style>
</svg>

